<svg width="201" height="43" viewBox="0 0 201 43" fill="none" xmlns="http://www.w3.org/2000/svg">
<path d="M22.8684 14.0637C24.3888 12.2899 26.6513 11.403 29.6559 11.403C32.4795 11.403 34.8144 12.5252 36.6606 14.7696C38.543 17.014 39.4842 19.6566 39.4842 22.6974C39.4842 25.9916 38.5611 28.7428 36.7149 30.951C34.8687 33.1592 32.4795 34.2633 29.5473 34.2633C26.3979 34.2633 24.2078 33.3583 22.977 31.5483L22.8684 42.6255H17.6013V12.1089H22.8684V14.0637ZM34.1085 22.806C34.1085 20.9598 33.5836 19.367 32.5338 18.0276C31.484 16.652 30.036 15.9642 28.1898 15.9642C26.4884 15.9642 25.0766 16.652 23.9544 18.0276C22.8322 19.4032 22.2711 20.996 22.2711 22.806C22.2711 24.5798 22.8684 26.1726 24.063 27.5844C25.2576 28.9962 26.6332 29.7021 28.1898 29.7021C30.036 29.7021 31.484 29.0505 32.5338 27.7473C33.5836 26.4441 34.1085 24.797 34.1085 22.806Z" fill="#00916B"/>
<path d="M48.7738 3.0951C48.7738 3.9277 48.4661 4.6517 47.8507 5.2671C47.2353 5.8825 46.5113 6.1902 45.6787 6.1902C44.8461 6.1902 44.1221 5.8825 43.5067 5.2671C42.8913 4.6517 42.5836 3.9277 42.5836 3.0951C42.5836 2.2625 42.8913 1.5385 43.5067 0.923101C44.1221 0.307701 44.8461 0 45.6787 0C46.5113 0 47.2353 0.307701 47.8507 0.923101C48.4661 1.5385 48.7738 2.2625 48.7738 3.0951ZM48.3394 33.5574H43.0723V12.1089H48.3394V33.5574Z" fill="#00916B"/>
<path d="M58.6619 14.0637C60.1461 12.2899 62.3362 11.403 65.2322 11.403C70.1554 11.403 72.617 14.4257 72.617 20.4711V33.5574H67.4042V22.2087C67.4042 17.6837 66.0105 15.4212 63.2231 15.4212C60.1823 15.4212 58.6619 17.8466 58.6619 22.6974V33.5574H53.3948V12.1089H58.6619V14.0637Z" fill="#00916B"/>
<path d="M97.4088 31.7112C97.4088 39.0598 93.9878 42.7341 87.146 42.7341C84.1052 42.7341 81.535 41.9015 79.4354 40.2363C77.3358 38.6073 76.286 36.4715 76.286 33.8289H81.879C81.879 34.8787 82.4039 35.9104 83.4537 36.924C84.5034 37.9376 85.68 38.4444 86.9832 38.4444C90.4222 38.4444 92.1417 36.381 92.1417 32.2542V30.8967C90.6575 32.7791 88.395 33.7203 85.3541 33.7203C82.3495 33.7203 79.9784 32.6705 78.2408 30.5709C76.5394 28.4713 75.6887 25.9011 75.6887 22.8603C75.6887 19.5661 76.6118 16.8149 78.458 14.6067C80.3042 12.3985 82.6935 11.2944 85.6256 11.2944C88.594 11.2944 90.7661 12.2175 92.1417 14.0637V12.0003H97.4088V31.7112ZM92.9018 22.3716C92.9018 20.4168 92.3588 18.8421 91.2729 17.6475C90.1869 16.4529 88.757 15.8556 86.9832 15.8556C85.2094 15.8556 83.7614 16.5072 82.6392 17.8104C81.5532 19.1136 81.0101 20.7607 81.0101 22.7517C81.0101 27.0233 83.0012 29.1591 86.9832 29.1591C88.7932 29.1591 90.2231 28.5256 91.2729 27.2586C92.3588 25.9554 92.9018 24.3264 92.9018 22.3716Z" fill="#00916B"/>
<path d="M109.689 26.1183L115.39 11.403H117.291L123.264 26.064L128.585 12.1089H134.395L124.404 33.9918H121.743L116.802 20.2539L111.155 33.9918H108.44L98.6114 12.1089H104.422L109.689 26.1183Z" fill="#00916B"/>
<path d="M142.208 3.0951C142.208 3.9277 141.9 4.6517 141.285 5.2671C140.669 5.8825 139.945 6.1902 139.113 6.1902C138.28 6.1902 137.556 5.8825 136.941 5.2671C136.325 4.6517 136.018 3.9277 136.018 3.0951C136.018 2.2625 136.325 1.5385 136.941 0.923101C137.556 0.307701 138.28 0 139.113 0C139.945 0 140.669 0.307701 141.285 0.923101C141.9 1.5385 142.208 2.2625 142.208 3.0951ZM141.774 33.5574H136.506V12.1089H141.774V33.5574Z" fill="#00916B"/>
<path d="M152.096 14.3352C153.435 12.3804 155.535 11.403 158.395 11.403C159.3 11.403 160.132 11.584 160.893 11.946L160.241 16.7244C159.445 16.2176 158.576 15.9642 157.635 15.9642C153.942 15.9642 152.096 18.6068 152.096 23.892V33.5574H146.829V12.1089H152.096V14.3352Z" fill="#00916B"/>
<path d="M166.916 23.349C166.916 25.4124 167.368 27.1138 168.273 28.4532C169.178 29.7926 170.427 30.4623 172.02 30.4623C174.518 30.4623 176.111 29.2315 176.798 26.7699L181.794 27.5844C180.165 32.037 176.907 34.2633 172.02 34.2633C168.762 34.2633 166.156 33.2316 164.201 31.1682C162.282 29.0686 161.323 26.3536 161.323 23.0232C161.323 19.5118 162.246 16.7063 164.092 14.6067C165.975 12.4709 168.509 11.403 171.694 11.403C174.916 11.403 177.414 12.4166 179.188 14.4438C180.998 16.4348 181.903 19.1679 181.903 22.6431V23.349H166.916ZM177.016 20.4168C177.016 18.9326 176.545 17.6294 175.604 16.5072C174.699 15.385 173.504 14.8239 172.02 14.8239C170.572 14.8239 169.377 15.4212 168.436 16.6158C167.531 17.7742 167.079 19.0412 167.079 20.4168H177.016Z" fill="#00916B"/>
<path d="M184.429 33.5574H200.429V37.5574H184.429V33.5574Z" fill="#00916B"/>
<path d="M0 32.0943V26.9153L9.05489 23.8079V23.4404L0 20.3664V15.154H0.701671L14 20.5669V26.7148L0.701671 32.0943H0Z" fill="#00916B"/>
</svg>
