<svg width="41" height="41" viewBox="0 0 41 41" fill="none" xmlns="http://www.w3.org/2000/svg">
<path d="M36.4993 2.12434C35.6488 2.12606 34.8197 2.39145 34.1263 2.88395C33.4328 3.37645 32.9091 4.07184 32.6273 4.87434H28.0541C27.755 3.69426 27.0709 2.64761 26.1101 1.89998C25.1494 1.15234 23.9667 0.746414 22.7493 0.746414C21.5319 0.746414 20.3493 1.15234 19.3885 1.89998C18.4277 2.64761 17.7437 3.69426 17.4446 4.87434H11.5541C11.3136 3.93604 10.8292 3.07808 10.1499 2.38757C9.47064 1.69706 8.62075 1.19859 7.68652 0.942779C6.7523 0.686968 5.76702 0.682925 4.83073 0.93106C3.89444 1.17919 3.04048 1.67067 2.35557 2.35558C1.67066 3.0405 1.17918 3.89445 0.931045 4.83075C0.682909 5.76704 0.686953 6.75232 0.942764 7.68654C1.19857 8.62076 1.69704 9.47066 2.38755 10.1499C3.07807 10.8292 3.93603 11.3136 4.87432 11.5541V17.4446C3.69425 17.7437 2.6476 18.4278 1.89996 19.3885C1.15233 20.3493 0.746399 21.5319 0.746399 22.7493C0.746399 23.9667 1.15233 25.1494 1.89996 26.1101C2.6476 27.0709 3.69425 27.755 4.87432 28.0541V32.6273C3.9569 32.9517 3.18369 33.5899 2.69133 34.4292C2.19897 35.2686 2.01918 36.2549 2.18373 37.214C2.34828 38.173 2.84657 39.043 3.59054 39.6702C4.33451 40.2974 5.27625 40.6414 6.24932 40.6414C7.22239 40.6414 8.16414 40.2974 8.90811 39.6702C9.65208 39.043 10.1504 38.173 10.3149 37.214C10.4795 36.2549 10.2997 35.2686 9.80732 34.4292C9.31496 33.5899 8.54174 32.9517 7.62432 32.6273V28.0541C8.4802 27.8322 9.26953 27.4062 9.9247 26.8125L14.5502 29.1252C14.523 29.2904 14.506 29.4571 14.4993 29.6243C14.4955 30.5799 14.8223 31.5074 15.4243 32.2495C16.0262 32.9917 16.8662 33.5028 17.802 33.6964C18.7378 33.8899 19.7117 33.7539 20.5586 33.3114C21.4055 32.8689 22.0734 32.1472 22.449 31.2685C22.8246 30.3898 22.8847 29.4083 22.6193 28.4904C22.3539 27.5724 21.7792 26.7745 20.9927 26.2318C20.2062 25.6892 19.2562 25.4352 18.3038 25.5129C17.3514 25.5907 16.4552 25.9954 15.7671 26.6585L11.4386 24.4942C11.637 23.9335 11.742 23.3441 11.7493 22.7493C11.7457 21.5333 11.3388 20.3528 10.5923 19.3929C9.84583 18.4329 8.80199 17.7477 7.62432 17.4446V11.5541C8.56961 11.3077 9.43207 10.8136 10.1228 10.1228C10.8136 9.43209 11.3076 8.56962 11.5541 7.62434H17.4446C17.6143 8.3173 17.9193 8.96987 18.3422 9.54453C18.765 10.1192 19.2972 10.6046 19.9082 10.9729C20.5193 11.3411 21.1971 11.585 21.9027 11.6904C22.6083 11.7958 23.3278 11.7607 24.0198 11.5871L26.5099 15.9458C25.8621 16.6939 25.5002 17.6472 25.4884 18.6367C25.4765 19.6262 25.8156 20.5879 26.4453 21.3512C27.075 22.1145 27.9547 22.6301 28.9284 22.8065C29.9021 22.983 30.9069 22.8088 31.7644 22.315C32.6219 21.8212 33.2768 21.0396 33.6129 20.1088C33.949 19.1781 33.9446 18.1584 33.6005 17.2306C33.2563 16.3029 32.5947 15.527 31.7329 15.0406C30.8711 14.5542 29.865 14.3887 28.8928 14.5736L26.4467 10.2918C27.2293 9.57691 27.7876 8.65029 28.0541 7.62434H32.6273C32.8806 8.33545 33.3245 8.96326 33.9105 9.43915C34.4965 9.91505 35.202 10.2207 35.95 10.3228C36.6979 10.4248 37.4595 10.3193 38.1516 10.0178C38.8436 9.71628 39.4395 9.23034 39.874 8.61308C40.3086 7.99581 40.5651 7.27098 40.6156 6.51779C40.6661 5.7646 40.5085 5.01202 40.1602 4.3423C39.8119 3.67258 39.2862 3.11148 38.6406 2.72032C37.9949 2.32916 37.2542 2.12299 36.4993 2.12434V2.12434ZM8.99932 22.7493C8.99932 23.2932 8.83804 23.8249 8.53586 24.2772C8.23369 24.7294 7.8042 25.0819 7.3017 25.29C6.79921 25.4981 6.24627 25.5526 5.71282 25.4465C5.17938 25.3404 4.68937 25.0785 4.30478 24.6939C3.92018 24.3093 3.65827 23.8193 3.55216 23.2858C3.44605 22.7524 3.50051 22.1995 3.70865 21.697C3.9168 21.1945 4.26927 20.765 4.72151 20.4628C5.17374 20.1606 5.70542 19.9993 6.24932 19.9993C6.97845 20.0001 7.6775 20.29 8.19306 20.8056C8.70863 21.3212 8.9986 22.0202 8.99932 22.7493V22.7493ZM6.24932 8.99934C5.70542 8.99934 5.17374 8.83805 4.72151 8.53588C4.26927 8.23371 3.9168 7.80421 3.70865 7.30172C3.50051 6.79922 3.44605 6.24629 3.55216 5.71284C3.65827 5.17939 3.92018 4.68939 4.30478 4.30479C4.68937 3.9202 5.17938 3.65829 5.71282 3.55218C6.24627 3.44607 6.79921 3.50053 7.3017 3.70867C7.8042 3.91681 8.23369 4.26929 8.53586 4.72152C8.83804 5.17376 8.99932 5.70544 8.99932 6.24934C8.9986 6.97846 8.70863 7.67751 8.19306 8.19308C7.6775 8.70864 6.97845 8.99861 6.24932 8.99934V8.99934ZM19.9993 6.24934C19.9993 5.70544 20.1606 5.17376 20.4628 4.72152C20.765 4.26929 21.1944 3.91681 21.6969 3.70867C22.1994 3.50053 22.7524 3.44607 23.2858 3.55218C23.8193 3.65829 24.3093 3.9202 24.6939 4.30479C25.0785 4.68939 25.3404 5.17939 25.4465 5.71284C25.5526 6.24629 25.4981 6.79922 25.29 7.30172C25.0819 7.80421 24.7294 8.23371 24.2771 8.53588C23.8249 8.83805 23.2932 8.99934 22.7493 8.99934C22.0202 8.99861 21.3211 8.70864 20.8056 8.19308C20.29 7.67751 20.0001 6.97846 19.9993 6.24934V6.24934Z" fill="white"/>
</svg>
