<svg width="44" height="44" viewBox="0 0 44 44" fill="none" xmlns="http://www.w3.org/2000/svg">
<g opacity="0.72">
<path d="M30.25 35.75C31.7688 35.75 33 34.5188 33 33C33 31.4812 31.7688 30.25 30.25 30.25C28.7312 30.25 27.5 31.4812 27.5 33C27.5 34.5188 28.7312 35.75 30.25 35.75Z" fill="white"/>
<path d="M40.9434 32.2836C40.0938 30.1192 38.6277 28.2517 36.7269 26.9125C34.8261 25.5734 32.5741 24.8215 30.25 24.75C27.9259 24.8215 25.6739 25.5734 23.7731 26.9125C21.8723 28.2517 20.4062 30.1192 19.5566 32.2836L19.25 33L19.5566 33.7164C20.4062 35.8808 21.8723 37.7483 23.7731 39.0875C25.6739 40.4266 27.9259 41.1785 30.25 41.25C32.5741 41.1785 34.8261 40.4266 36.7269 39.0875C38.6277 37.7483 40.0938 35.8808 40.9434 33.7164L41.25 33L40.9434 32.2836ZM30.25 38.5C29.1622 38.5 28.0988 38.1774 27.1944 37.5731C26.2899 36.9687 25.5849 36.1098 25.1687 35.1048C24.7524 34.0998 24.6435 32.9939 24.8557 31.927C25.0679 30.8601 25.5917 29.8801 26.3609 29.1109C27.1301 28.3417 28.1101 27.8179 29.177 27.6057C30.2439 27.3935 31.3498 27.5024 32.3548 27.9187C33.3598 28.3349 34.2187 29.0399 34.8231 29.9444C35.4274 30.8488 35.75 31.9122 35.75 33C35.7482 34.4581 35.1681 35.856 34.1371 36.8871C33.106 37.9181 31.7081 38.4982 30.25 38.5Z" fill="white"/>
<path d="M11 12.375C11.7594 12.375 12.375 11.7594 12.375 11C12.375 10.2406 11.7594 9.625 11 9.625C10.2406 9.625 9.625 10.2406 9.625 11C9.625 11.7594 10.2406 12.375 11 12.375Z" fill="white"/>
<path d="M11 23.375C11.7594 23.375 12.375 22.7594 12.375 22C12.375 21.2406 11.7594 20.625 11 20.625C10.2406 20.625 9.625 21.2406 9.625 22C9.625 22.7594 10.2406 23.375 11 23.375Z" fill="white"/>
<path d="M11 34.375C11.7594 34.375 12.375 33.7594 12.375 33C12.375 32.2406 11.7594 31.625 11 31.625C10.2406 31.625 9.625 32.2406 9.625 33C9.625 33.7594 10.2406 34.375 11 34.375Z" fill="white"/>
<path d="M6.875 28.875H16.5V26.125H6.875V17.875H28.875V22H31.625V6.875C31.625 6.14565 31.3353 5.44618 30.8195 4.93046C30.3038 4.41473 29.6043 4.125 28.875 4.125H6.875C6.14565 4.125 5.44618 4.41473 4.93046 4.93046C4.41473 5.44618 4.125 6.14565 4.125 6.875V37.125C4.125 37.8543 4.41473 38.5538 4.93046 39.0695C5.44618 39.5853 6.14565 39.875 6.875 39.875H16.5V37.125H6.875V28.875ZM6.875 6.875H28.875V15.125H6.875V6.875Z" fill="white"/>
</g>
</svg>
