<svg width="168" height="36" viewBox="0 0 168 36" fill="none" xmlns="http://www.w3.org/2000/svg">
<path d="M19.1152 11.7744C20.386 10.2894 22.2771 9.54688 24.7884 9.54688C27.1484 9.54688 29.1 10.4864 30.6431 12.3654C32.2164 14.2445 33.0031 16.4569 33.0031 19.0027C33.0031 21.7606 32.2315 24.0639 30.6884 25.9126C29.1453 27.7614 27.1484 28.6857 24.6976 28.6857C22.0653 28.6857 20.2347 27.9281 19.206 26.4127L19.1152 35.6866H14.7129V10.1379H19.1152V11.7744ZM28.51 19.0936C28.51 17.5479 28.0712 16.2144 27.1938 15.0931C26.3163 13.9414 25.1061 13.3656 23.563 13.3656C22.1409 13.3656 20.9609 13.9414 20.0229 15.0931C19.085 16.2447 18.616 17.5782 18.616 19.0936C18.616 20.5786 19.1152 21.9121 20.1137 23.0941C21.1122 24.2761 22.2619 24.8671 23.563 24.8671C25.1061 24.8671 26.3163 24.3215 27.1938 23.2305C28.0712 22.1394 28.51 20.7605 28.51 19.0936Z" fill="#214032"/>
<path d="M40.7657 2.59125C40.7657 3.28831 40.5085 3.89445 39.9942 4.40966C39.4798 4.92488 38.8747 5.18249 38.1787 5.18249C37.4828 5.18249 36.8777 4.92488 36.3633 4.40966C35.849 3.89445 35.5918 3.28831 35.5918 2.59125C35.5918 1.89419 35.849 1.28805 36.3633 0.772829C36.8777 0.25761 37.4828 0 38.1787 0C38.8747 0 39.4798 0.25761 39.9942 0.772829C40.5085 1.28805 40.7657 1.89419 40.7657 2.59125ZM40.4026 28.0946H36.0003V10.1377H40.4026V28.0946Z" fill="#214032"/>
<path d="M49.0313 11.7744C50.2718 10.2894 52.1023 9.54688 54.5229 9.54688C58.6378 9.54688 60.6952 12.0775 60.6952 17.1388V28.0947H56.3383V18.5935C56.3383 14.8051 55.1734 12.9109 52.8436 12.9109C50.302 12.9109 49.0313 14.9415 49.0313 19.0027V28.0947H44.6289V10.1379H49.0313V11.7744Z" fill="#214032"/>
<path d="M81.4159 26.5502C81.4159 32.7025 78.5565 35.7786 72.838 35.7786C70.2964 35.7786 68.1482 35.0816 66.3933 33.6875C64.6384 32.3237 63.761 30.5355 63.761 28.3231H68.4357C68.4357 29.202 68.8744 30.0658 69.7519 30.9144C70.6292 31.763 71.6127 32.1873 72.7019 32.1873C75.5763 32.1873 77.0135 30.4598 77.0135 27.0048V25.8683C75.773 27.4442 73.8819 28.2322 71.3403 28.2322C68.829 28.2322 66.8472 27.3533 65.3948 25.5955C63.9728 23.8377 63.2617 21.6859 63.2617 19.1401C63.2617 16.3822 64.0333 14.0788 65.5764 12.2301C67.1195 10.3814 69.1165 9.45703 71.5672 9.45703C74.0483 9.45703 75.8638 10.2299 77.0135 11.7755V10.048H81.4159V26.5502ZM77.6488 18.731C77.6488 17.0944 77.195 15.776 76.2874 14.7759C75.3797 13.7758 74.1845 13.2757 72.7019 13.2757C71.2193 13.2757 70.0091 13.8212 69.0711 14.9123C68.1634 16.0033 67.7095 17.3823 67.7095 19.0492C67.7095 22.6254 69.3737 24.4135 72.7019 24.4135C74.2148 24.4135 75.4099 23.8832 76.2874 22.8224C77.195 21.7314 77.6488 20.3675 77.6488 18.731Z" fill="#214032"/>
<path d="M91.6808 21.8667L96.4458 9.54688H98.0347L103.027 21.8212L107.474 10.1379H112.331L103.98 28.4584H101.756L97.626 16.9569L92.9061 28.4584H90.6368L82.4219 10.1379H87.2785L91.6808 21.8667Z" fill="#214032"/>
<path d="M118.861 2.59125C118.861 3.28831 118.604 3.89445 118.09 4.40966C117.575 4.92488 116.97 5.18249 116.274 5.18249C115.578 5.18249 114.973 4.92488 114.459 4.40966C113.944 3.89445 113.688 3.28831 113.688 2.59125C113.688 1.89419 113.944 1.28805 114.459 0.772829C114.973 0.25761 115.578 0 116.274 0C116.97 0 117.575 0.25761 118.09 0.772829C118.604 1.28805 118.861 1.89419 118.861 2.59125ZM118.498 28.0946H114.095V10.1377H118.498V28.0946Z" fill="#214032"/>
<path d="M127.125 12.0017C128.244 10.3652 129.999 9.54688 132.39 9.54688C133.146 9.54688 133.842 9.69841 134.478 10.0015L133.933 14.002C133.267 13.5777 132.541 13.3656 131.755 13.3656C128.668 13.3656 127.125 15.578 127.125 20.0028V28.0947H122.723V10.1379H127.125V12.0017Z" fill="#214032"/>
<path d="M139.513 19.5482C139.513 21.2757 139.89 22.7001 140.647 23.8215C141.403 24.9428 142.447 25.5035 143.779 25.5035C145.867 25.5035 147.198 24.4731 147.772 22.4122L151.948 23.0941C150.586 26.8218 147.863 28.6857 143.779 28.6857C141.056 28.6857 138.877 27.822 137.243 26.0945C135.639 24.3367 134.838 22.0637 134.838 19.2754C134.838 16.3356 135.609 13.9868 137.152 12.229C138.726 10.4409 140.844 9.54688 143.506 9.54688C146.199 9.54688 148.287 10.3955 149.77 12.0927C151.283 13.7595 152.039 16.0477 152.039 18.9572V19.5482H139.513ZM147.954 17.0933C147.954 15.8507 147.561 14.7597 146.774 13.8202C146.018 12.8806 145.019 12.4109 143.779 12.4109C142.568 12.4109 141.57 12.9109 140.783 13.9111C140.027 14.8809 139.649 15.9416 139.649 17.0933H147.954Z" fill="#214032"/>
<path d="M154.15 28.0938H167.524V31.4426H154.15V28.0938Z" fill="#214032"/>
<path d="M0 26.8701V22.5342L7.56827 19.9326V19.6249L0 17.0514V12.6875H0.586471L11.7015 17.2192V22.3663L0.586471 26.8701H0Z" fill="#214032"/>
</svg>
