<svg width="112" height="24" viewBox="0 0 112 24" fill="none" xmlns="http://www.w3.org/2000/svg">
<path d="M12.7435 7.84832C13.5907 6.8583 14.8514 6.36328 16.5256 6.36328C18.0989 6.36328 19.4 6.98963 20.4287 8.24231C21.4776 9.495 22.0021 10.9699 22.0021 12.6671C22.0021 14.5058 21.4877 16.0413 20.459 17.2738C19.4302 18.5063 18.0989 19.1225 16.4651 19.1225C14.7102 19.1225 13.4898 18.6174 12.804 17.6072L12.7435 23.7898H9.80859V6.75727H12.7435V7.84832ZM19.0066 12.7277C19.0066 11.6973 18.7142 10.8083 18.1292 10.0607C17.5442 9.29296 16.7374 8.90907 15.7087 8.90907C14.7606 8.90907 13.9739 9.29296 13.3486 10.0607C12.7233 10.8285 12.4107 11.7175 12.4107 12.7277C12.4107 13.7178 12.7435 14.6068 13.4091 15.3948C14.0748 16.1827 14.8413 16.5767 15.7087 16.5767C16.7374 16.5767 17.5442 16.2131 18.1292 15.4857C18.7142 14.7583 19.0066 13.839 19.0066 12.7277Z" fill="white"/>
<path d="M27.1758 1.7275C27.1758 2.1922 27.0044 2.5963 26.6615 2.93978C26.3186 3.28326 25.9151 3.45499 25.4512 3.45499C24.9873 3.45499 24.5838 3.28326 24.2409 2.93978C23.898 2.5963 23.7266 2.1922 23.7266 1.7275C23.7266 1.26279 23.898 0.858698 24.2409 0.515219C24.5838 0.17174 24.9873 0 25.4512 0C25.9151 0 26.3186 0.17174 26.6615 0.515219C27.0044 0.858698 27.1758 1.26279 27.1758 1.7275ZM26.9338 18.7297H23.9989V6.75845H26.9338V18.7297Z" fill="white"/>
<path d="M32.6888 7.84832C33.5158 6.8583 34.7362 6.36328 36.3499 6.36328C39.0932 6.36328 40.4648 8.05037 40.4648 11.4245V18.7285H37.5601V12.3944C37.5601 9.86879 36.7836 8.606 35.2304 8.606C33.536 8.606 32.6888 9.95971 32.6888 12.6671V18.7285H29.7539V6.75727H32.6888V7.84832Z" fill="white"/>
<path d="M54.2786 17.7001C54.2786 21.8017 52.3723 23.8524 48.56 23.8524C46.8656 23.8524 45.4334 23.3877 44.2635 22.4583C43.0936 21.5491 42.5086 20.357 42.5086 18.8821H45.6251C45.6251 19.468 45.9176 20.0439 46.5026 20.6096C47.0875 21.1753 47.7431 21.4582 48.4693 21.4582C50.3855 21.4582 51.3436 20.3065 51.3436 18.0032V17.2455C50.5166 18.2962 49.2559 18.8215 47.5615 18.8215C45.8873 18.8215 44.5661 18.2355 43.5979 17.0637C42.6498 15.8918 42.1758 14.4573 42.1758 12.7601C42.1758 10.9215 42.6901 9.3859 43.7189 8.15341C44.7476 6.92093 46.079 6.30469 47.7128 6.30469C49.3668 6.30469 50.5771 6.81991 51.3436 7.85034V6.69868H54.2786V17.7001ZM51.7672 12.4873C51.7672 11.3963 51.4646 10.5174 50.8595 9.8506C50.2544 9.18385 49.4576 8.85047 48.4693 8.85047C47.4809 8.85047 46.674 9.21416 46.0487 9.94153C45.4436 10.6689 45.1409 11.5882 45.1409 12.6995C45.1409 15.0836 46.2504 16.2757 48.4693 16.2757C49.4778 16.2757 50.2746 15.9221 50.8595 15.2149C51.4646 14.4876 51.7672 13.5784 51.7672 12.4873Z" fill="white"/>
<path d="M61.1199 14.5765L64.2965 6.36328H65.3558L68.6841 14.5462L71.649 6.75727H74.8864L69.3193 18.971H67.8365L65.0833 11.3033L61.9367 18.971H60.4239L54.9473 6.75727H58.185L61.1199 14.5765Z" fill="white"/>
<path d="M79.2402 1.7275C79.2402 2.1922 79.0686 2.5963 78.7259 2.93978C78.3826 3.28326 77.9792 3.45499 77.5156 3.45499C77.0514 3.45499 76.648 3.28326 76.3053 2.93978C75.9621 2.5963 75.791 2.1922 75.791 1.7275C75.791 1.26279 75.9621 0.858698 76.3053 0.515219C76.648 0.17174 77.0514 0 77.5156 0C77.9792 0 78.3826 0.17174 78.7259 0.515219C79.0686 0.858698 79.2402 1.26279 79.2402 1.7275ZM78.9983 18.7297H76.0629V6.75845H78.9983V18.7297Z" fill="white"/>
<path d="M84.7512 7.99986C85.4973 6.90881 86.6675 6.36328 88.2611 6.36328C88.7654 6.36328 89.229 6.4643 89.653 6.66635L89.2897 9.33337C88.8462 9.0505 88.362 8.90907 87.8376 8.90907C85.7799 8.90907 84.7512 10.384 84.7512 13.3339V18.7285H81.8164V6.75727H84.7512V7.99986Z" fill="white"/>
<path d="M93.0071 13.0308C93.0071 14.1825 93.259 15.1321 93.7633 15.8797C94.2675 16.6272 94.9635 17.001 95.8511 17.001C97.243 17.001 98.1307 16.3141 98.5135 14.9402L101.297 15.3948C100.39 17.8799 98.5742 19.1225 95.8511 19.1225C94.0357 19.1225 92.5836 18.5467 91.4943 17.395C90.425 16.2231 89.8906 14.7078 89.8906 12.849C89.8906 10.8891 90.4049 9.32326 91.4335 8.15139C92.4828 6.95932 93.8948 6.36328 95.6695 6.36328C97.4648 6.36328 98.8567 6.92901 99.8452 8.06047C100.854 9.17173 101.358 10.6972 101.358 12.6368V13.0308H93.0071ZM98.635 11.3942C98.635 10.5658 98.3725 9.83848 97.8482 9.21214C97.3439 8.58579 96.678 8.27262 95.8511 8.27262C95.0443 8.27262 94.3784 8.606 93.8541 9.27275C93.3498 9.9193 93.0979 10.6265 93.0979 11.3942H98.635Z" fill="white"/>
<path d="M102.766 18.7305H111.681V20.963H102.766V18.7305Z" fill="white"/>
<path d="M0 17.916V15.0254L5.04551 13.291V13.0859L0 11.3702V8.46094H0.390981L7.801 11.4821V14.9135L0.390981 17.916H0Z" fill="white"/>
</svg>
