<svg width="44" height="44" viewBox="0 0 44 44" fill="none" xmlns="http://www.w3.org/2000/svg">
<g opacity="0.62">
<path d="M5.5 27.5V30.25H11.8058L2.75 39.3058L4.69425 41.25L13.75 32.1942V38.5H16.5V27.5H5.5ZM27.5 30.25H33V33H27.5V30.25ZM22 24.75H27.5V27.5H22V24.75ZM27.5 19.25H33V22H27.5V19.25ZM11 19.25H16.5V22H11V19.25Z" fill="white"/>
<path d="M37.125 4.125H6.875C6.14599 4.12609 5.44715 4.41617 4.93166 4.93166C4.41617 5.44715 4.12609 6.14599 4.125 6.875V22H6.875V15.125H37.125V37.125H22V39.875H37.125C37.854 39.8739 38.5529 39.5838 39.0683 39.0683C39.5838 38.5529 39.8739 37.854 39.875 37.125V6.875C39.8739 6.14599 39.5838 5.44715 39.0683 4.93166C38.5529 4.41617 37.854 4.12609 37.125 4.125ZM37.125 12.375H6.875V6.875H37.125V12.375Z" fill="white"/>
</g>
</svg>
