<svg width="44" height="44" viewBox="0 0 44 44" fill="none" xmlns="http://www.w3.org/2000/svg">
<g opacity="0.62">
<path d="M12.375 11C13.1344 11 13.75 10.3844 13.75 9.625C13.75 8.86561 13.1344 8.25 12.375 8.25C11.6156 8.25 11 8.86561 11 9.625C11 10.3844 11.6156 11 12.375 11Z" fill="white"/>
<path d="M37.125 30.4425V24.75C37.125 24.0207 36.8353 23.3212 36.3196 22.8055C35.8038 22.2897 35.1044 22 34.375 22H23.375V16.5H35.75C36.4794 16.5 37.1788 16.2103 37.6946 15.6945C38.2103 15.1788 38.5 14.4793 38.5 13.75V5.5C38.5 4.77065 38.2103 4.07118 37.6946 3.55546C37.1788 3.03973 36.4794 2.75 35.75 2.75H8.25001C7.52067 2.75 6.82119 3.03973 6.30547 3.55546C5.78974 4.07118 5.50001 4.77065 5.50001 5.5V13.75C5.50001 14.4793 5.78974 15.1788 6.30547 15.6945C6.82119 16.2103 7.52067 16.5 8.25001 16.5H20.625V22H9.62501C8.89567 22 8.19619 22.2897 7.68047 22.8055C7.16474 23.3212 6.87501 24.0207 6.87501 24.75V30.4425C5.57886 30.7772 4.44925 31.5731 3.69794 32.681C2.94662 33.789 2.62517 35.1329 2.79385 36.4609C2.96253 37.7889 3.60975 39.0098 4.61419 39.8947C5.61864 40.7796 6.91135 41.2679 8.25001 41.2679C9.58868 41.2679 10.8814 40.7796 11.8858 39.8947C12.8903 39.0098 13.5375 37.7889 13.7062 36.4609C13.8749 35.1329 13.5534 33.789 12.8021 32.681C12.0508 31.5731 10.9212 30.7772 9.62501 30.4425V24.75H20.625V30.25H16.5V41.25H27.5V30.25H23.375V24.75H34.375V30.4425C33.0789 30.7772 31.9493 31.5731 31.1979 32.681C30.4466 33.789 30.1252 35.1329 30.2939 36.4609C30.4625 37.7889 31.1098 39.0098 32.1142 39.8947C33.1186 40.7796 34.4114 41.2679 35.75 41.2679C37.0887 41.2679 38.3814 40.7796 39.3858 39.8947C40.3903 39.0098 41.0375 37.7889 41.2062 36.4609C41.3749 35.1329 41.0534 33.789 40.3021 32.681C39.5508 31.5731 38.4212 30.7772 37.125 30.4425V30.4425ZM11 35.75C11 36.2939 10.8387 36.8256 10.5366 37.2778C10.2344 37.7301 9.80489 38.0825 9.30239 38.2907C8.7999 38.4988 8.24696 38.5533 7.71352 38.4472C7.18007 38.3411 6.69006 38.0791 6.30547 37.6945C5.92088 37.3099 5.65896 36.8199 5.55285 36.2865C5.44674 35.7531 5.5012 35.2001 5.70934 34.6976C5.91749 34.1951 6.26996 33.7656 6.7222 33.4635C7.17443 33.1613 7.70611 33 8.25001 33C8.97936 33 9.67883 33.2897 10.1946 33.8055C10.7103 34.3212 11 35.0207 11 35.75ZM24.75 33V38.5H19.25V33H24.75ZM8.25001 13.75V5.5H35.75V13.75H8.25001ZM35.75 38.5C35.2061 38.5 34.6744 38.3387 34.2222 38.0365C33.77 37.7344 33.4175 37.3049 33.2093 36.8024C33.0012 36.2999 32.9467 35.7469 33.0529 35.2135C33.159 34.6801 33.4209 34.1901 33.8055 33.8055C34.1901 33.4209 34.6801 33.1589 35.2135 33.0528C35.747 32.9467 36.2999 33.0012 36.8024 33.2093C37.3049 33.4175 37.7344 33.7699 38.0366 34.2222C38.3387 34.6744 38.5 35.2061 38.5 35.75C38.5 36.4793 38.2103 37.1788 37.6946 37.6945C37.1788 38.2103 36.4794 38.5 35.75 38.5Z" fill="white"/>
</g>
</svg>
