<svg width="16" height="16" viewBox="0 0 16 16" fill="none" xmlns="http://www.w3.org/2000/svg">
<path d="M8.95014 4.00863C9.41221 3.46954 10.0998 3.2 11.013 3.2C11.8711 3.2 12.5807 3.54105 13.1418 4.22317C13.7139 4.90529 14 5.70842 14 6.63258C14 7.63375 13.7194 8.46989 13.1583 9.141C12.5973 9.81211 11.8711 10.1477 10.98 10.1477C10.0228 10.1477 9.3572 9.87262 8.98314 9.32253L8.95014 12.6891H7.34937V3.41453H8.95014V4.00863ZM12.3662 6.66558C12.3662 6.10449 12.2067 5.62041 11.8876 5.21334C11.5686 4.79527 11.1285 4.58623 10.5674 4.58623C10.0503 4.58623 9.62125 4.79527 9.28019 5.21334C8.93913 5.63141 8.76861 6.11549 8.76861 6.66558C8.76861 7.20467 8.95014 7.68876 9.3132 8.11783C9.67626 8.5469 10.0943 8.76144 10.5674 8.76144C11.1285 8.76144 11.5686 8.5634 11.8876 8.16734C12.2067 7.77127 12.3662 7.27069 12.3662 6.66558Z" fill="#00916B"/>
<path d="M2 9.48847V7.91448L4.75195 6.97008V6.85838L2 5.92414V4.33999H2.21325L6.25486 5.98507V7.85355L2.21325 9.48847H2Z" fill="#00916B"/>
</svg>
